<mxfile host="app.diagrams.net" modified="2021-09-25T03:48:40.988Z" agent="5.0 (Windows NT 10.0; Win64; x64) AppleWebKit/537.36 (KHTML, like Gecko) Chrome/93.0.4577.82 Safari/537.36" etag="2ifmQF6DJtbAOhr3jjXF" version="15.3.2" type="github">
  <diagram id="C5RBs43oDa-KdzZeNtuy" name="Page-1">
    <mxGraphModel dx="652" dy="934" grid="1" gridSize="10" guides="1" tooltips="1" connect="1" arrows="1" fold="1" page="1" pageScale="1" pageWidth="827" pageHeight="1169" math="0" shadow="0">
      <root>
        <mxCell id="WIyWlLk6GJQsqaUBKTNV-0" />
        <mxCell id="WIyWlLk6GJQsqaUBKTNV-1" parent="WIyWlLk6GJQsqaUBKTNV-0" />
        <mxCell id="icVRKcyIq2XIdc4o7d0m-13" value="" style="edgeStyle=orthogonalEdgeStyle;rounded=0;orthogonalLoop=1;jettySize=auto;html=1;endArrow=block;endFill=0;strokeWidth=1;entryX=0.5;entryY=0;entryDx=0;entryDy=0;" edge="1" parent="WIyWlLk6GJQsqaUBKTNV-1" source="WIyWlLk6GJQsqaUBKTNV-3" target="icVRKcyIq2XIdc4o7d0m-15">
          <mxGeometry relative="1" as="geometry">
            <mxPoint x="220" y="170" as="targetPoint" />
          </mxGeometry>
        </mxCell>
        <mxCell id="WIyWlLk6GJQsqaUBKTNV-3" value="시작" style="rounded=1;whiteSpace=wrap;html=1;fontSize=12;glass=0;strokeWidth=1;shadow=0;" parent="WIyWlLk6GJQsqaUBKTNV-1" vertex="1">
          <mxGeometry x="160" y="80" width="120" height="40" as="geometry" />
        </mxCell>
        <mxCell id="icVRKcyIq2XIdc4o7d0m-17" style="edgeStyle=orthogonalEdgeStyle;rounded=0;orthogonalLoop=1;jettySize=auto;html=1;exitX=0.5;exitY=1;exitDx=0;exitDy=0;entryX=0.5;entryY=0;entryDx=0;entryDy=0;endArrow=block;endFill=0;strokeWidth=1;" edge="1" parent="WIyWlLk6GJQsqaUBKTNV-1" source="icVRKcyIq2XIdc4o7d0m-15" target="icVRKcyIq2XIdc4o7d0m-16">
          <mxGeometry relative="1" as="geometry" />
        </mxCell>
        <mxCell id="icVRKcyIq2XIdc4o7d0m-20" style="edgeStyle=orthogonalEdgeStyle;rounded=0;orthogonalLoop=1;jettySize=auto;html=1;exitX=1;exitY=0.5;exitDx=0;exitDy=0;endArrow=block;endFill=0;strokeWidth=1;" edge="1" parent="WIyWlLk6GJQsqaUBKTNV-1" source="icVRKcyIq2XIdc4o7d0m-15" target="icVRKcyIq2XIdc4o7d0m-19">
          <mxGeometry relative="1" as="geometry" />
        </mxCell>
        <mxCell id="icVRKcyIq2XIdc4o7d0m-15" value="load json?" style="rhombus;whiteSpace=wrap;html=1;" vertex="1" parent="WIyWlLk6GJQsqaUBKTNV-1">
          <mxGeometry x="160" y="170" width="120" height="80" as="geometry" />
        </mxCell>
        <mxCell id="icVRKcyIq2XIdc4o7d0m-30" value="" style="edgeStyle=orthogonalEdgeStyle;rounded=0;orthogonalLoop=1;jettySize=auto;html=1;endArrow=block;endFill=0;strokeWidth=1;" edge="1" parent="WIyWlLk6GJQsqaUBKTNV-1" source="icVRKcyIq2XIdc4o7d0m-16" target="icVRKcyIq2XIdc4o7d0m-29">
          <mxGeometry relative="1" as="geometry" />
        </mxCell>
        <mxCell id="icVRKcyIq2XIdc4o7d0m-16" value="유저 정보 초기화" style="shape=hexagon;perimeter=hexagonPerimeter2;whiteSpace=wrap;html=1;fixedSize=1;" vertex="1" parent="WIyWlLk6GJQsqaUBKTNV-1">
          <mxGeometry x="160" y="280" width="120" height="50" as="geometry" />
        </mxCell>
        <mxCell id="icVRKcyIq2XIdc4o7d0m-23" style="edgeStyle=orthogonalEdgeStyle;rounded=0;orthogonalLoop=1;jettySize=auto;html=1;exitX=0.5;exitY=1;exitDx=0;exitDy=0;entryX=1;entryY=0.5;entryDx=0;entryDy=0;endArrow=block;endFill=0;strokeWidth=1;" edge="1" parent="WIyWlLk6GJQsqaUBKTNV-1" source="icVRKcyIq2XIdc4o7d0m-19" target="icVRKcyIq2XIdc4o7d0m-16">
          <mxGeometry relative="1" as="geometry" />
        </mxCell>
        <mxCell id="icVRKcyIq2XIdc4o7d0m-19" value="DB에 유저 정보 GET 요청" style="rounded=0;whiteSpace=wrap;html=1;" vertex="1" parent="WIyWlLk6GJQsqaUBKTNV-1">
          <mxGeometry x="370" y="190" width="120" height="40" as="geometry" />
        </mxCell>
        <mxCell id="icVRKcyIq2XIdc4o7d0m-27" value="No" style="text;html=1;align=center;verticalAlign=middle;resizable=0;points=[];autosize=1;strokeColor=none;fillColor=none;" vertex="1" parent="WIyWlLk6GJQsqaUBKTNV-1">
          <mxGeometry x="300" y="190" width="30" height="20" as="geometry" />
        </mxCell>
        <mxCell id="icVRKcyIq2XIdc4o7d0m-28" value="Yes" style="text;html=1;align=center;verticalAlign=middle;resizable=0;points=[];autosize=1;strokeColor=none;fillColor=none;" vertex="1" parent="WIyWlLk6GJQsqaUBKTNV-1">
          <mxGeometry x="220" y="250" width="40" height="20" as="geometry" />
        </mxCell>
        <mxCell id="icVRKcyIq2XIdc4o7d0m-34" value="" style="edgeStyle=orthogonalEdgeStyle;rounded=0;orthogonalLoop=1;jettySize=auto;html=1;endArrow=block;endFill=0;strokeWidth=1;" edge="1" parent="WIyWlLk6GJQsqaUBKTNV-1" source="icVRKcyIq2XIdc4o7d0m-29" target="icVRKcyIq2XIdc4o7d0m-40">
          <mxGeometry relative="1" as="geometry" />
        </mxCell>
        <mxCell id="icVRKcyIq2XIdc4o7d0m-29" value="save json" style="whiteSpace=wrap;html=1;" vertex="1" parent="WIyWlLk6GJQsqaUBKTNV-1">
          <mxGeometry x="160" y="370" width="120" height="30" as="geometry" />
        </mxCell>
        <mxCell id="icVRKcyIq2XIdc4o7d0m-45" value="" style="edgeStyle=orthogonalEdgeStyle;rounded=0;orthogonalLoop=1;jettySize=auto;html=1;endArrow=block;endFill=0;strokeWidth=1;" edge="1" parent="WIyWlLk6GJQsqaUBKTNV-1" source="icVRKcyIq2XIdc4o7d0m-33" target="icVRKcyIq2XIdc4o7d0m-44">
          <mxGeometry relative="1" as="geometry" />
        </mxCell>
        <mxCell id="icVRKcyIq2XIdc4o7d0m-129" style="edgeStyle=orthogonalEdgeStyle;rounded=0;orthogonalLoop=1;jettySize=auto;html=1;exitX=1;exitY=0.5;exitDx=0;exitDy=0;endArrow=block;endFill=0;strokeWidth=1;" edge="1" parent="WIyWlLk6GJQsqaUBKTNV-1" source="icVRKcyIq2XIdc4o7d0m-33">
          <mxGeometry relative="1" as="geometry">
            <mxPoint x="319.9999999999999" y="1049.9999999999998" as="targetPoint" />
            <Array as="points">
              <mxPoint x="360" y="638" />
              <mxPoint x="360" y="1050" />
            </Array>
          </mxGeometry>
        </mxCell>
        <mxCell id="icVRKcyIq2XIdc4o7d0m-33" value="내 피드 좋아요?" style="rhombus;whiteSpace=wrap;html=1;" vertex="1" parent="WIyWlLk6GJQsqaUBKTNV-1">
          <mxGeometry x="160" y="600" width="120" height="75" as="geometry" />
        </mxCell>
        <mxCell id="icVRKcyIq2XIdc4o7d0m-42" style="edgeStyle=orthogonalEdgeStyle;rounded=0;orthogonalLoop=1;jettySize=auto;html=1;exitX=0.5;exitY=1;exitDx=0;exitDy=0;entryX=0.5;entryY=0;entryDx=0;entryDy=0;endArrow=block;endFill=0;strokeWidth=1;" edge="1" parent="WIyWlLk6GJQsqaUBKTNV-1" source="icVRKcyIq2XIdc4o7d0m-40" target="icVRKcyIq2XIdc4o7d0m-41">
          <mxGeometry relative="1" as="geometry" />
        </mxCell>
        <mxCell id="icVRKcyIq2XIdc4o7d0m-40" value="크롬창 오픈" style="rounded=0;whiteSpace=wrap;html=1;" vertex="1" parent="WIyWlLk6GJQsqaUBKTNV-1">
          <mxGeometry x="160" y="440" width="120" height="40" as="geometry" />
        </mxCell>
        <mxCell id="icVRKcyIq2XIdc4o7d0m-43" style="edgeStyle=orthogonalEdgeStyle;rounded=0;orthogonalLoop=1;jettySize=auto;html=1;exitX=0.5;exitY=1;exitDx=0;exitDy=0;entryX=0.5;entryY=0;entryDx=0;entryDy=0;endArrow=block;endFill=0;strokeWidth=1;" edge="1" parent="WIyWlLk6GJQsqaUBKTNV-1" source="icVRKcyIq2XIdc4o7d0m-41" target="icVRKcyIq2XIdc4o7d0m-33">
          <mxGeometry relative="1" as="geometry" />
        </mxCell>
        <mxCell id="icVRKcyIq2XIdc4o7d0m-41" value="인스타 계정 로그인" style="rounded=0;whiteSpace=wrap;html=1;" vertex="1" parent="WIyWlLk6GJQsqaUBKTNV-1">
          <mxGeometry x="160" y="520" width="120" height="40" as="geometry" />
        </mxCell>
        <mxCell id="icVRKcyIq2XIdc4o7d0m-47" style="edgeStyle=orthogonalEdgeStyle;rounded=0;orthogonalLoop=1;jettySize=auto;html=1;exitX=0.5;exitY=1;exitDx=0;exitDy=0;entryX=0.5;entryY=0;entryDx=0;entryDy=0;endArrow=block;endFill=0;strokeWidth=1;" edge="1" parent="WIyWlLk6GJQsqaUBKTNV-1" source="icVRKcyIq2XIdc4o7d0m-44" target="icVRKcyIq2XIdc4o7d0m-46">
          <mxGeometry relative="1" as="geometry" />
        </mxCell>
        <mxCell id="icVRKcyIq2XIdc4o7d0m-126" style="edgeStyle=orthogonalEdgeStyle;rounded=0;orthogonalLoop=1;jettySize=auto;html=1;exitX=1;exitY=0.5;exitDx=0;exitDy=0;entryX=1;entryY=0;entryDx=0;entryDy=0;endArrow=block;endFill=0;strokeWidth=1;" edge="1" parent="WIyWlLk6GJQsqaUBKTNV-1" source="icVRKcyIq2XIdc4o7d0m-44" target="icVRKcyIq2XIdc4o7d0m-51">
          <mxGeometry relative="1" as="geometry">
            <Array as="points">
              <mxPoint x="320" y="750" />
              <mxPoint x="320" y="1050" />
            </Array>
          </mxGeometry>
        </mxCell>
        <mxCell id="icVRKcyIq2XIdc4o7d0m-44" value="현재 작업 &amp;lt; 목표치 ?" style="rhombus;whiteSpace=wrap;html=1;" vertex="1" parent="WIyWlLk6GJQsqaUBKTNV-1">
          <mxGeometry x="150" y="710" width="140" height="80" as="geometry" />
        </mxCell>
        <mxCell id="icVRKcyIq2XIdc4o7d0m-48" style="edgeStyle=orthogonalEdgeStyle;rounded=0;orthogonalLoop=1;jettySize=auto;html=1;exitX=0.5;exitY=1;exitDx=0;exitDy=0;endArrow=block;endFill=0;strokeWidth=1;entryX=0.5;entryY=0;entryDx=0;entryDy=0;" edge="1" parent="WIyWlLk6GJQsqaUBKTNV-1" source="icVRKcyIq2XIdc4o7d0m-46" target="icVRKcyIq2XIdc4o7d0m-49">
          <mxGeometry relative="1" as="geometry">
            <mxPoint x="219.9310344827586" y="900.0000000000002" as="targetPoint" />
          </mxGeometry>
        </mxCell>
        <mxCell id="icVRKcyIq2XIdc4o7d0m-46" value="좋아요 작업 수행&lt;br&gt;doLikeInFeed()" style="rounded=0;whiteSpace=wrap;html=1;" vertex="1" parent="WIyWlLk6GJQsqaUBKTNV-1">
          <mxGeometry x="160" y="820" width="120" height="40" as="geometry" />
        </mxCell>
        <mxCell id="icVRKcyIq2XIdc4o7d0m-52" value="" style="edgeStyle=orthogonalEdgeStyle;rounded=0;orthogonalLoop=1;jettySize=auto;html=1;endArrow=block;endFill=0;strokeWidth=1;" edge="1" parent="WIyWlLk6GJQsqaUBKTNV-1" source="icVRKcyIq2XIdc4o7d0m-49" target="icVRKcyIq2XIdc4o7d0m-51">
          <mxGeometry relative="1" as="geometry" />
        </mxCell>
        <mxCell id="icVRKcyIq2XIdc4o7d0m-123" style="edgeStyle=orthogonalEdgeStyle;rounded=0;orthogonalLoop=1;jettySize=auto;html=1;exitX=0;exitY=0.5;exitDx=0;exitDy=0;entryX=0;entryY=0.5;entryDx=0;entryDy=0;endArrow=block;endFill=0;strokeWidth=1;" edge="1" parent="WIyWlLk6GJQsqaUBKTNV-1" source="icVRKcyIq2XIdc4o7d0m-49" target="icVRKcyIq2XIdc4o7d0m-46">
          <mxGeometry relative="1" as="geometry">
            <Array as="points">
              <mxPoint x="120" y="940" />
              <mxPoint x="120" y="840" />
            </Array>
          </mxGeometry>
        </mxCell>
        <mxCell id="icVRKcyIq2XIdc4o7d0m-49" value="현재 작업 ≥ 목표치 ?" style="rhombus;whiteSpace=wrap;html=1;" vertex="1" parent="WIyWlLk6GJQsqaUBKTNV-1">
          <mxGeometry x="150" y="900" width="140" height="80" as="geometry" />
        </mxCell>
        <mxCell id="icVRKcyIq2XIdc4o7d0m-54" value="" style="edgeStyle=orthogonalEdgeStyle;rounded=0;orthogonalLoop=1;jettySize=auto;html=1;endArrow=block;endFill=0;strokeWidth=1;entryX=0.5;entryY=0;entryDx=0;entryDy=0;" edge="1" parent="WIyWlLk6GJQsqaUBKTNV-1" source="icVRKcyIq2XIdc4o7d0m-51" target="icVRKcyIq2XIdc4o7d0m-66">
          <mxGeometry relative="1" as="geometry" />
        </mxCell>
        <mxCell id="icVRKcyIq2XIdc4o7d0m-120" style="edgeStyle=orthogonalEdgeStyle;rounded=0;orthogonalLoop=1;jettySize=auto;html=1;exitX=1;exitY=1;exitDx=0;exitDy=0;endArrow=block;endFill=0;strokeWidth=1;" edge="1" parent="WIyWlLk6GJQsqaUBKTNV-1" source="icVRKcyIq2XIdc4o7d0m-51">
          <mxGeometry relative="1" as="geometry">
            <mxPoint x="480" y="1740" as="targetPoint" />
            <Array as="points">
              <mxPoint x="520" y="1090" />
              <mxPoint x="520" y="1740" />
            </Array>
          </mxGeometry>
        </mxCell>
        <mxCell id="icVRKcyIq2XIdc4o7d0m-51" value="언팔로우?" style="rhombus;whiteSpace=wrap;html=1;" vertex="1" parent="WIyWlLk6GJQsqaUBKTNV-1">
          <mxGeometry x="160" y="1030" width="120" height="80" as="geometry" />
        </mxCell>
        <mxCell id="icVRKcyIq2XIdc4o7d0m-56" style="edgeStyle=orthogonalEdgeStyle;rounded=0;orthogonalLoop=1;jettySize=auto;html=1;exitX=0.5;exitY=1;exitDx=0;exitDy=0;endArrow=block;endFill=0;strokeWidth=1;" edge="1" parent="WIyWlLk6GJQsqaUBKTNV-1" source="icVRKcyIq2XIdc4o7d0m-53" target="icVRKcyIq2XIdc4o7d0m-55">
          <mxGeometry relative="1" as="geometry" />
        </mxCell>
        <mxCell id="icVRKcyIq2XIdc4o7d0m-59" style="edgeStyle=orthogonalEdgeStyle;rounded=0;orthogonalLoop=1;jettySize=auto;html=1;exitX=1;exitY=0.5;exitDx=0;exitDy=0;entryX=0;entryY=0.5;entryDx=0;entryDy=0;endArrow=block;endFill=0;strokeWidth=1;" edge="1" parent="WIyWlLk6GJQsqaUBKTNV-1" source="icVRKcyIq2XIdc4o7d0m-53" target="icVRKcyIq2XIdc4o7d0m-58">
          <mxGeometry relative="1" as="geometry" />
        </mxCell>
        <mxCell id="icVRKcyIq2XIdc4o7d0m-53" value="모두 언팔?" style="rhombus;whiteSpace=wrap;html=1;" vertex="1" parent="WIyWlLk6GJQsqaUBKTNV-1">
          <mxGeometry x="160" y="1300" width="120" height="80" as="geometry" />
        </mxCell>
        <mxCell id="icVRKcyIq2XIdc4o7d0m-63" style="edgeStyle=orthogonalEdgeStyle;rounded=0;orthogonalLoop=1;jettySize=auto;html=1;exitX=0.5;exitY=1;exitDx=0;exitDy=0;endArrow=block;endFill=0;strokeWidth=1;" edge="1" parent="WIyWlLk6GJQsqaUBKTNV-1" source="icVRKcyIq2XIdc4o7d0m-55" target="icVRKcyIq2XIdc4o7d0m-61">
          <mxGeometry relative="1" as="geometry" />
        </mxCell>
        <mxCell id="icVRKcyIq2XIdc4o7d0m-55" value="팔로우 리스트" style="shape=hexagon;perimeter=hexagonPerimeter2;whiteSpace=wrap;html=1;fixedSize=1;" vertex="1" parent="WIyWlLk6GJQsqaUBKTNV-1">
          <mxGeometry x="160" y="1420" width="120" height="40" as="geometry" />
        </mxCell>
        <mxCell id="icVRKcyIq2XIdc4o7d0m-62" style="edgeStyle=orthogonalEdgeStyle;rounded=0;orthogonalLoop=1;jettySize=auto;html=1;exitX=0.5;exitY=1;exitDx=0;exitDy=0;entryX=1;entryY=0.5;entryDx=0;entryDy=0;endArrow=block;endFill=0;strokeWidth=1;" edge="1" parent="WIyWlLk6GJQsqaUBKTNV-1" source="icVRKcyIq2XIdc4o7d0m-57" target="icVRKcyIq2XIdc4o7d0m-61">
          <mxGeometry relative="1" as="geometry" />
        </mxCell>
        <mxCell id="icVRKcyIq2XIdc4o7d0m-57" value="팔로우 - 팔로워" style="shape=hexagon;perimeter=hexagonPerimeter2;whiteSpace=wrap;html=1;fixedSize=1;" vertex="1" parent="WIyWlLk6GJQsqaUBKTNV-1">
          <mxGeometry x="320" y="1420" width="120" height="40" as="geometry" />
        </mxCell>
        <mxCell id="icVRKcyIq2XIdc4o7d0m-60" style="edgeStyle=orthogonalEdgeStyle;rounded=0;orthogonalLoop=1;jettySize=auto;html=1;exitX=0.5;exitY=1;exitDx=0;exitDy=0;entryX=0.5;entryY=0;entryDx=0;entryDy=0;endArrow=block;endFill=0;strokeWidth=1;" edge="1" parent="WIyWlLk6GJQsqaUBKTNV-1" source="icVRKcyIq2XIdc4o7d0m-58" target="icVRKcyIq2XIdc4o7d0m-57">
          <mxGeometry relative="1" as="geometry" />
        </mxCell>
        <mxCell id="icVRKcyIq2XIdc4o7d0m-58" value="맞팔 제외" style="rounded=0;whiteSpace=wrap;html=1;" vertex="1" parent="WIyWlLk6GJQsqaUBKTNV-1">
          <mxGeometry x="320" y="1325" width="120" height="30" as="geometry" />
        </mxCell>
        <mxCell id="icVRKcyIq2XIdc4o7d0m-69" style="edgeStyle=orthogonalEdgeStyle;rounded=0;orthogonalLoop=1;jettySize=auto;html=1;exitX=0.5;exitY=1;exitDx=0;exitDy=0;entryX=0.5;entryY=0;entryDx=0;entryDy=0;endArrow=block;endFill=0;strokeWidth=1;" edge="1" parent="WIyWlLk6GJQsqaUBKTNV-1" source="icVRKcyIq2XIdc4o7d0m-61" target="icVRKcyIq2XIdc4o7d0m-68">
          <mxGeometry relative="1" as="geometry" />
        </mxCell>
        <mxCell id="icVRKcyIq2XIdc4o7d0m-61" value="언팔로우 작업 수행&lt;br&gt;doRelation(list)" style="rounded=0;whiteSpace=wrap;html=1;" vertex="1" parent="WIyWlLk6GJQsqaUBKTNV-1">
          <mxGeometry x="160" y="1520" width="120" height="50" as="geometry" />
        </mxCell>
        <mxCell id="icVRKcyIq2XIdc4o7d0m-64" value="No" style="text;html=1;align=center;verticalAlign=middle;resizable=0;points=[];autosize=1;strokeColor=none;fillColor=none;" vertex="1" parent="WIyWlLk6GJQsqaUBKTNV-1">
          <mxGeometry x="285" y="1320" width="30" height="20" as="geometry" />
        </mxCell>
        <mxCell id="icVRKcyIq2XIdc4o7d0m-65" value="Yes" style="text;html=1;align=center;verticalAlign=middle;resizable=0;points=[];autosize=1;strokeColor=none;fillColor=none;" vertex="1" parent="WIyWlLk6GJQsqaUBKTNV-1">
          <mxGeometry x="220" y="1380" width="40" height="20" as="geometry" />
        </mxCell>
        <mxCell id="icVRKcyIq2XIdc4o7d0m-67" style="edgeStyle=orthogonalEdgeStyle;rounded=0;orthogonalLoop=1;jettySize=auto;html=1;exitX=0.5;exitY=1;exitDx=0;exitDy=0;entryX=0.5;entryY=0;entryDx=0;entryDy=0;endArrow=block;endFill=0;strokeWidth=1;" edge="1" parent="WIyWlLk6GJQsqaUBKTNV-1" source="icVRKcyIq2XIdc4o7d0m-66" target="icVRKcyIq2XIdc4o7d0m-53">
          <mxGeometry relative="1" as="geometry" />
        </mxCell>
        <mxCell id="icVRKcyIq2XIdc4o7d0m-117" style="edgeStyle=orthogonalEdgeStyle;rounded=0;orthogonalLoop=1;jettySize=auto;html=1;exitX=1;exitY=0.5;exitDx=0;exitDy=0;entryX=1;entryY=0;entryDx=0;entryDy=0;endArrow=block;endFill=0;strokeWidth=1;" edge="1" parent="WIyWlLk6GJQsqaUBKTNV-1" source="icVRKcyIq2XIdc4o7d0m-66" target="icVRKcyIq2XIdc4o7d0m-70">
          <mxGeometry relative="1" as="geometry">
            <Array as="points">
              <mxPoint x="480" y="1220" />
              <mxPoint x="480" y="1740" />
            </Array>
          </mxGeometry>
        </mxCell>
        <mxCell id="icVRKcyIq2XIdc4o7d0m-66" value="현재 작업 &amp;lt; 목표치 ?" style="rhombus;whiteSpace=wrap;html=1;" vertex="1" parent="WIyWlLk6GJQsqaUBKTNV-1">
          <mxGeometry x="150" y="1180" width="140" height="80" as="geometry" />
        </mxCell>
        <mxCell id="icVRKcyIq2XIdc4o7d0m-71" style="edgeStyle=orthogonalEdgeStyle;rounded=0;orthogonalLoop=1;jettySize=auto;html=1;exitX=0.5;exitY=1;exitDx=0;exitDy=0;entryX=0.5;entryY=0;entryDx=0;entryDy=0;endArrow=block;endFill=0;strokeWidth=1;" edge="1" parent="WIyWlLk6GJQsqaUBKTNV-1" source="icVRKcyIq2XIdc4o7d0m-68" target="icVRKcyIq2XIdc4o7d0m-70">
          <mxGeometry relative="1" as="geometry" />
        </mxCell>
        <mxCell id="icVRKcyIq2XIdc4o7d0m-115" style="edgeStyle=orthogonalEdgeStyle;rounded=0;orthogonalLoop=1;jettySize=auto;html=1;exitX=0;exitY=0.5;exitDx=0;exitDy=0;entryX=0;entryY=0.5;entryDx=0;entryDy=0;endArrow=block;endFill=0;strokeWidth=1;" edge="1" parent="WIyWlLk6GJQsqaUBKTNV-1" source="icVRKcyIq2XIdc4o7d0m-68" target="icVRKcyIq2XIdc4o7d0m-61">
          <mxGeometry relative="1" as="geometry">
            <Array as="points">
              <mxPoint x="120" y="1650" />
              <mxPoint x="120" y="1545" />
            </Array>
          </mxGeometry>
        </mxCell>
        <mxCell id="icVRKcyIq2XIdc4o7d0m-68" value="현재 작업 ≥ 목표치 ?" style="rhombus;whiteSpace=wrap;html=1;" vertex="1" parent="WIyWlLk6GJQsqaUBKTNV-1">
          <mxGeometry x="150" y="1610" width="140" height="80" as="geometry" />
        </mxCell>
        <mxCell id="icVRKcyIq2XIdc4o7d0m-74" style="edgeStyle=orthogonalEdgeStyle;rounded=0;orthogonalLoop=1;jettySize=auto;html=1;exitX=0.5;exitY=1;exitDx=0;exitDy=0;entryX=0.5;entryY=0;entryDx=0;entryDy=0;endArrow=block;endFill=0;strokeWidth=1;" edge="1" parent="WIyWlLk6GJQsqaUBKTNV-1" source="icVRKcyIq2XIdc4o7d0m-70" target="icVRKcyIq2XIdc4o7d0m-73">
          <mxGeometry relative="1" as="geometry" />
        </mxCell>
        <mxCell id="icVRKcyIq2XIdc4o7d0m-111" style="edgeStyle=orthogonalEdgeStyle;rounded=0;orthogonalLoop=1;jettySize=auto;html=1;exitX=0.777;exitY=0.742;exitDx=0;exitDy=0;entryX=1;entryY=0.5;entryDx=0;entryDy=0;endArrow=block;endFill=0;strokeWidth=1;exitPerimeter=0;" edge="1" parent="WIyWlLk6GJQsqaUBKTNV-1" source="icVRKcyIq2XIdc4o7d0m-70" target="icVRKcyIq2XIdc4o7d0m-95">
          <mxGeometry relative="1" as="geometry">
            <Array as="points">
              <mxPoint x="280" y="1779" />
              <mxPoint x="360" y="1779" />
              <mxPoint x="360" y="2735" />
            </Array>
          </mxGeometry>
        </mxCell>
        <mxCell id="icVRKcyIq2XIdc4o7d0m-70" value="태그별 작업 수행?" style="rhombus;whiteSpace=wrap;html=1;" vertex="1" parent="WIyWlLk6GJQsqaUBKTNV-1">
          <mxGeometry x="160" y="1720" width="120" height="80" as="geometry" />
        </mxCell>
        <mxCell id="icVRKcyIq2XIdc4o7d0m-77" style="edgeStyle=orthogonalEdgeStyle;rounded=0;orthogonalLoop=1;jettySize=auto;html=1;exitX=0.5;exitY=1;exitDx=0;exitDy=0;entryX=0.5;entryY=0;entryDx=0;entryDy=0;endArrow=block;endFill=0;strokeWidth=1;" edge="1" parent="WIyWlLk6GJQsqaUBKTNV-1" source="icVRKcyIq2XIdc4o7d0m-72" target="icVRKcyIq2XIdc4o7d0m-76">
          <mxGeometry relative="1" as="geometry" />
        </mxCell>
        <mxCell id="icVRKcyIq2XIdc4o7d0m-72" value="태그별 포스트 리스트 추출&lt;br&gt;getPostsOfTag(tag)" style="rounded=0;whiteSpace=wrap;html=1;" vertex="1" parent="WIyWlLk6GJQsqaUBKTNV-1">
          <mxGeometry x="160" y="1910" width="120" height="50" as="geometry" />
        </mxCell>
        <mxCell id="icVRKcyIq2XIdc4o7d0m-75" style="edgeStyle=orthogonalEdgeStyle;rounded=0;orthogonalLoop=1;jettySize=auto;html=1;exitX=0.5;exitY=1;exitDx=0;exitDy=0;entryX=0.5;entryY=0;entryDx=0;entryDy=0;endArrow=block;endFill=0;strokeWidth=1;" edge="1" parent="WIyWlLk6GJQsqaUBKTNV-1" source="icVRKcyIq2XIdc4o7d0m-73" target="icVRKcyIq2XIdc4o7d0m-72">
          <mxGeometry relative="1" as="geometry" />
        </mxCell>
        <mxCell id="icVRKcyIq2XIdc4o7d0m-73" value="태그 목록 조회&lt;br&gt;getTagList(source)" style="rounded=0;whiteSpace=wrap;html=1;" vertex="1" parent="WIyWlLk6GJQsqaUBKTNV-1">
          <mxGeometry x="160" y="1830" width="120" height="50" as="geometry" />
        </mxCell>
        <mxCell id="icVRKcyIq2XIdc4o7d0m-80" style="edgeStyle=orthogonalEdgeStyle;rounded=0;orthogonalLoop=1;jettySize=auto;html=1;exitX=0.5;exitY=1;exitDx=0;exitDy=0;entryX=0.5;entryY=0;entryDx=0;entryDy=0;endArrow=block;endFill=0;strokeWidth=1;" edge="1" parent="WIyWlLk6GJQsqaUBKTNV-1" source="icVRKcyIq2XIdc4o7d0m-76" target="icVRKcyIq2XIdc4o7d0m-79">
          <mxGeometry relative="1" as="geometry" />
        </mxCell>
        <mxCell id="icVRKcyIq2XIdc4o7d0m-76" value="포스트페이지로 이동&lt;br&gt;getPage(url)" style="rounded=0;whiteSpace=wrap;html=1;" vertex="1" parent="WIyWlLk6GJQsqaUBKTNV-1">
          <mxGeometry x="160" y="1990" width="120" height="40" as="geometry" />
        </mxCell>
        <mxCell id="icVRKcyIq2XIdc4o7d0m-82" style="edgeStyle=orthogonalEdgeStyle;rounded=0;orthogonalLoop=1;jettySize=auto;html=1;exitX=0.5;exitY=1;exitDx=0;exitDy=0;entryX=0.5;entryY=0;entryDx=0;entryDy=0;endArrow=block;endFill=0;strokeWidth=1;" edge="1" parent="WIyWlLk6GJQsqaUBKTNV-1" source="icVRKcyIq2XIdc4o7d0m-79" target="icVRKcyIq2XIdc4o7d0m-81">
          <mxGeometry relative="1" as="geometry" />
        </mxCell>
        <mxCell id="icVRKcyIq2XIdc4o7d0m-108" style="edgeStyle=orthogonalEdgeStyle;rounded=0;orthogonalLoop=1;jettySize=auto;html=1;exitX=1;exitY=0.5;exitDx=0;exitDy=0;entryX=1;entryY=0;entryDx=0;entryDy=0;endArrow=block;endFill=0;strokeWidth=1;" edge="1" parent="WIyWlLk6GJQsqaUBKTNV-1" source="icVRKcyIq2XIdc4o7d0m-79" target="icVRKcyIq2XIdc4o7d0m-88">
          <mxGeometry relative="1" as="geometry">
            <Array as="points">
              <mxPoint x="320" y="2100" />
              <mxPoint x="320" y="2370" />
            </Array>
          </mxGeometry>
        </mxCell>
        <mxCell id="icVRKcyIq2XIdc4o7d0m-79" value="팔로우 &amp;lt; 목표치 ?" style="rhombus;whiteSpace=wrap;html=1;" vertex="1" parent="WIyWlLk6GJQsqaUBKTNV-1">
          <mxGeometry x="150" y="2060" width="140" height="80" as="geometry" />
        </mxCell>
        <mxCell id="icVRKcyIq2XIdc4o7d0m-84" style="edgeStyle=orthogonalEdgeStyle;rounded=0;orthogonalLoop=1;jettySize=auto;html=1;exitX=0.5;exitY=1;exitDx=0;exitDy=0;entryX=0.5;entryY=0;entryDx=0;entryDy=0;endArrow=block;endFill=0;strokeWidth=1;" edge="1" parent="WIyWlLk6GJQsqaUBKTNV-1" source="icVRKcyIq2XIdc4o7d0m-81" target="icVRKcyIq2XIdc4o7d0m-83">
          <mxGeometry relative="1" as="geometry" />
        </mxCell>
        <mxCell id="icVRKcyIq2XIdc4o7d0m-81" value="팔로우 버튼 찾기&lt;br&gt;getFollowBtnPost()" style="rounded=0;whiteSpace=wrap;html=1;" vertex="1" parent="WIyWlLk6GJQsqaUBKTNV-1">
          <mxGeometry x="160" y="2170" width="120" height="40" as="geometry" />
        </mxCell>
        <mxCell id="icVRKcyIq2XIdc4o7d0m-87" style="edgeStyle=orthogonalEdgeStyle;rounded=0;orthogonalLoop=1;jettySize=auto;html=1;exitX=0.5;exitY=1;exitDx=0;exitDy=0;endArrow=block;endFill=0;strokeWidth=1;" edge="1" parent="WIyWlLk6GJQsqaUBKTNV-1" source="icVRKcyIq2XIdc4o7d0m-83">
          <mxGeometry relative="1" as="geometry">
            <mxPoint x="220" y="2349.9999999999995" as="targetPoint" />
          </mxGeometry>
        </mxCell>
        <mxCell id="icVRKcyIq2XIdc4o7d0m-83" value="팔로우 버튼 클릭&lt;br&gt;.click()" style="rounded=0;whiteSpace=wrap;html=1;" vertex="1" parent="WIyWlLk6GJQsqaUBKTNV-1">
          <mxGeometry x="160" y="2240" width="120" height="40" as="geometry" />
        </mxCell>
        <mxCell id="icVRKcyIq2XIdc4o7d0m-92" style="edgeStyle=orthogonalEdgeStyle;rounded=0;orthogonalLoop=1;jettySize=auto;html=1;exitX=0.5;exitY=1;exitDx=0;exitDy=0;endArrow=block;endFill=0;strokeWidth=1;" edge="1" parent="WIyWlLk6GJQsqaUBKTNV-1" source="icVRKcyIq2XIdc4o7d0m-88" target="icVRKcyIq2XIdc4o7d0m-90">
          <mxGeometry relative="1" as="geometry" />
        </mxCell>
        <mxCell id="icVRKcyIq2XIdc4o7d0m-104" style="edgeStyle=orthogonalEdgeStyle;rounded=0;orthogonalLoop=1;jettySize=auto;html=1;exitX=1;exitY=1;exitDx=0;exitDy=0;entryX=1;entryY=0.5;entryDx=0;entryDy=0;endArrow=block;endFill=0;strokeWidth=1;" edge="1" parent="WIyWlLk6GJQsqaUBKTNV-1" source="icVRKcyIq2XIdc4o7d0m-88" target="icVRKcyIq2XIdc4o7d0m-93">
          <mxGeometry relative="1" as="geometry">
            <Array as="points">
              <mxPoint x="320" y="2410" />
              <mxPoint x="320" y="2650" />
            </Array>
          </mxGeometry>
        </mxCell>
        <mxCell id="icVRKcyIq2XIdc4o7d0m-88" value="좋아요 &amp;lt; 목표치 ?" style="rhombus;whiteSpace=wrap;html=1;" vertex="1" parent="WIyWlLk6GJQsqaUBKTNV-1">
          <mxGeometry x="150" y="2350" width="140" height="80" as="geometry" />
        </mxCell>
        <mxCell id="icVRKcyIq2XIdc4o7d0m-89" style="edgeStyle=orthogonalEdgeStyle;rounded=0;orthogonalLoop=1;jettySize=auto;html=1;exitX=0.5;exitY=1;exitDx=0;exitDy=0;entryX=0.5;entryY=0;entryDx=0;entryDy=0;endArrow=block;endFill=0;strokeWidth=1;" edge="1" parent="WIyWlLk6GJQsqaUBKTNV-1" source="icVRKcyIq2XIdc4o7d0m-90" target="icVRKcyIq2XIdc4o7d0m-91">
          <mxGeometry relative="1" as="geometry" />
        </mxCell>
        <mxCell id="icVRKcyIq2XIdc4o7d0m-90" value="좋아요 버튼 찾기&lt;br&gt;getLikeBtnPost()" style="rounded=0;whiteSpace=wrap;html=1;" vertex="1" parent="WIyWlLk6GJQsqaUBKTNV-1">
          <mxGeometry x="160" y="2460" width="120" height="40" as="geometry" />
        </mxCell>
        <mxCell id="icVRKcyIq2XIdc4o7d0m-94" style="edgeStyle=orthogonalEdgeStyle;rounded=0;orthogonalLoop=1;jettySize=auto;html=1;exitX=0.5;exitY=1;exitDx=0;exitDy=0;endArrow=block;endFill=0;strokeWidth=1;" edge="1" parent="WIyWlLk6GJQsqaUBKTNV-1" source="icVRKcyIq2XIdc4o7d0m-91" target="icVRKcyIq2XIdc4o7d0m-93">
          <mxGeometry relative="1" as="geometry" />
        </mxCell>
        <mxCell id="icVRKcyIq2XIdc4o7d0m-91" value="팔로우 버튼 클릭&lt;br&gt;.click()" style="rounded=0;whiteSpace=wrap;html=1;" vertex="1" parent="WIyWlLk6GJQsqaUBKTNV-1">
          <mxGeometry x="160" y="2530" width="120" height="40" as="geometry" />
        </mxCell>
        <mxCell id="icVRKcyIq2XIdc4o7d0m-96" style="edgeStyle=orthogonalEdgeStyle;rounded=0;orthogonalLoop=1;jettySize=auto;html=1;exitX=0.5;exitY=1;exitDx=0;exitDy=0;entryX=0.5;entryY=0;entryDx=0;entryDy=0;endArrow=block;endFill=0;strokeWidth=1;" edge="1" parent="WIyWlLk6GJQsqaUBKTNV-1" source="icVRKcyIq2XIdc4o7d0m-93" target="icVRKcyIq2XIdc4o7d0m-95">
          <mxGeometry relative="1" as="geometry" />
        </mxCell>
        <mxCell id="icVRKcyIq2XIdc4o7d0m-101" style="edgeStyle=orthogonalEdgeStyle;rounded=0;orthogonalLoop=1;jettySize=auto;html=1;exitX=0;exitY=0.5;exitDx=0;exitDy=0;entryX=0;entryY=0.5;entryDx=0;entryDy=0;endArrow=block;endFill=0;strokeWidth=1;" edge="1" parent="WIyWlLk6GJQsqaUBKTNV-1" source="icVRKcyIq2XIdc4o7d0m-93" target="icVRKcyIq2XIdc4o7d0m-76">
          <mxGeometry relative="1" as="geometry">
            <Array as="points">
              <mxPoint x="120" y="2650" />
              <mxPoint x="120" y="2010" />
            </Array>
          </mxGeometry>
        </mxCell>
        <mxCell id="icVRKcyIq2XIdc4o7d0m-93" value="현재 작업 ≥ 목표치 ?" style="rhombus;whiteSpace=wrap;html=1;" vertex="1" parent="WIyWlLk6GJQsqaUBKTNV-1">
          <mxGeometry x="150" y="2610" width="140" height="80" as="geometry" />
        </mxCell>
        <mxCell id="icVRKcyIq2XIdc4o7d0m-98" style="edgeStyle=orthogonalEdgeStyle;rounded=0;orthogonalLoop=1;jettySize=auto;html=1;exitX=0.5;exitY=1;exitDx=0;exitDy=0;entryX=0.5;entryY=0;entryDx=0;entryDy=0;endArrow=block;endFill=0;strokeWidth=1;" edge="1" parent="WIyWlLk6GJQsqaUBKTNV-1" source="icVRKcyIq2XIdc4o7d0m-95" target="icVRKcyIq2XIdc4o7d0m-97">
          <mxGeometry relative="1" as="geometry" />
        </mxCell>
        <mxCell id="icVRKcyIq2XIdc4o7d0m-95" value="save json" style="whiteSpace=wrap;html=1;" vertex="1" parent="WIyWlLk6GJQsqaUBKTNV-1">
          <mxGeometry x="160" y="2720" width="120" height="30" as="geometry" />
        </mxCell>
        <mxCell id="icVRKcyIq2XIdc4o7d0m-100" style="edgeStyle=orthogonalEdgeStyle;rounded=0;orthogonalLoop=1;jettySize=auto;html=1;exitX=0.5;exitY=1;exitDx=0;exitDy=0;entryX=0.5;entryY=0;entryDx=0;entryDy=0;endArrow=block;endFill=0;strokeWidth=1;" edge="1" parent="WIyWlLk6GJQsqaUBKTNV-1" source="icVRKcyIq2XIdc4o7d0m-97" target="icVRKcyIq2XIdc4o7d0m-99">
          <mxGeometry relative="1" as="geometry" />
        </mxCell>
        <mxCell id="icVRKcyIq2XIdc4o7d0m-97" value="DB에 작업 정보 저장" style="whiteSpace=wrap;html=1;" vertex="1" parent="WIyWlLk6GJQsqaUBKTNV-1">
          <mxGeometry x="160" y="2780" width="120" height="30" as="geometry" />
        </mxCell>
        <mxCell id="icVRKcyIq2XIdc4o7d0m-99" value="끝" style="rounded=1;whiteSpace=wrap;html=1;" vertex="1" parent="WIyWlLk6GJQsqaUBKTNV-1">
          <mxGeometry x="160" y="2840" width="120" height="30" as="geometry" />
        </mxCell>
        <mxCell id="icVRKcyIq2XIdc4o7d0m-102" value="Yes" style="text;html=1;align=center;verticalAlign=middle;resizable=0;points=[];autosize=1;strokeColor=none;fillColor=none;" vertex="1" parent="WIyWlLk6GJQsqaUBKTNV-1">
          <mxGeometry x="220" y="2690" width="40" height="20" as="geometry" />
        </mxCell>
        <mxCell id="icVRKcyIq2XIdc4o7d0m-103" value="No" style="text;html=1;align=center;verticalAlign=middle;resizable=0;points=[];autosize=1;strokeColor=none;fillColor=none;" vertex="1" parent="WIyWlLk6GJQsqaUBKTNV-1">
          <mxGeometry x="125" y="2630" width="30" height="20" as="geometry" />
        </mxCell>
        <mxCell id="icVRKcyIq2XIdc4o7d0m-105" value="No" style="text;html=1;align=center;verticalAlign=middle;resizable=0;points=[];autosize=1;strokeColor=none;fillColor=none;" vertex="1" parent="WIyWlLk6GJQsqaUBKTNV-1">
          <mxGeometry x="290" y="2410" width="30" height="20" as="geometry" />
        </mxCell>
        <mxCell id="icVRKcyIq2XIdc4o7d0m-106" value="Yes" style="text;html=1;align=center;verticalAlign=middle;resizable=0;points=[];autosize=1;strokeColor=none;fillColor=none;" vertex="1" parent="WIyWlLk6GJQsqaUBKTNV-1">
          <mxGeometry x="220" y="2430" width="40" height="20" as="geometry" />
        </mxCell>
        <mxCell id="icVRKcyIq2XIdc4o7d0m-109" value="Yes" style="text;html=1;align=center;verticalAlign=middle;resizable=0;points=[];autosize=1;strokeColor=none;fillColor=none;" vertex="1" parent="WIyWlLk6GJQsqaUBKTNV-1">
          <mxGeometry x="220" y="2140" width="40" height="20" as="geometry" />
        </mxCell>
        <mxCell id="icVRKcyIq2XIdc4o7d0m-110" value="No" style="text;html=1;align=center;verticalAlign=middle;resizable=0;points=[];autosize=1;strokeColor=none;fillColor=none;" vertex="1" parent="WIyWlLk6GJQsqaUBKTNV-1">
          <mxGeometry x="290" y="2100" width="30" height="20" as="geometry" />
        </mxCell>
        <mxCell id="icVRKcyIq2XIdc4o7d0m-112" value="No" style="text;html=1;align=center;verticalAlign=middle;resizable=0;points=[];autosize=1;strokeColor=none;fillColor=none;" vertex="1" parent="WIyWlLk6GJQsqaUBKTNV-1">
          <mxGeometry x="330" y="1780" width="30" height="20" as="geometry" />
        </mxCell>
        <mxCell id="icVRKcyIq2XIdc4o7d0m-113" value="Yes" style="text;html=1;align=center;verticalAlign=middle;resizable=0;points=[];autosize=1;strokeColor=none;fillColor=none;" vertex="1" parent="WIyWlLk6GJQsqaUBKTNV-1">
          <mxGeometry x="220" y="1800" width="40" height="20" as="geometry" />
        </mxCell>
        <mxCell id="icVRKcyIq2XIdc4o7d0m-114" value="Yes" style="text;html=1;align=center;verticalAlign=middle;resizable=0;points=[];autosize=1;strokeColor=none;fillColor=none;" vertex="1" parent="WIyWlLk6GJQsqaUBKTNV-1">
          <mxGeometry x="220" y="1690" width="40" height="20" as="geometry" />
        </mxCell>
        <mxCell id="icVRKcyIq2XIdc4o7d0m-116" value="No" style="text;html=1;align=center;verticalAlign=middle;resizable=0;points=[];autosize=1;strokeColor=none;fillColor=none;" vertex="1" parent="WIyWlLk6GJQsqaUBKTNV-1">
          <mxGeometry x="120" y="1650" width="30" height="20" as="geometry" />
        </mxCell>
        <mxCell id="icVRKcyIq2XIdc4o7d0m-118" value="No" style="text;html=1;align=center;verticalAlign=middle;resizable=0;points=[];autosize=1;strokeColor=none;fillColor=none;" vertex="1" parent="WIyWlLk6GJQsqaUBKTNV-1">
          <mxGeometry x="290" y="1200" width="30" height="20" as="geometry" />
        </mxCell>
        <mxCell id="icVRKcyIq2XIdc4o7d0m-119" value="Yes" style="text;html=1;align=center;verticalAlign=middle;resizable=0;points=[];autosize=1;strokeColor=none;fillColor=none;" vertex="1" parent="WIyWlLk6GJQsqaUBKTNV-1">
          <mxGeometry x="220" y="1260" width="40" height="20" as="geometry" />
        </mxCell>
        <mxCell id="icVRKcyIq2XIdc4o7d0m-121" value="No" style="text;html=1;align=center;verticalAlign=middle;resizable=0;points=[];autosize=1;strokeColor=none;fillColor=none;" vertex="1" parent="WIyWlLk6GJQsqaUBKTNV-1">
          <mxGeometry x="280" y="1090" width="30" height="20" as="geometry" />
        </mxCell>
        <mxCell id="icVRKcyIq2XIdc4o7d0m-122" value="Yes" style="text;html=1;align=center;verticalAlign=middle;resizable=0;points=[];autosize=1;strokeColor=none;fillColor=none;" vertex="1" parent="WIyWlLk6GJQsqaUBKTNV-1">
          <mxGeometry x="220" y="1110" width="40" height="20" as="geometry" />
        </mxCell>
        <mxCell id="icVRKcyIq2XIdc4o7d0m-124" value="Yes" style="text;html=1;align=center;verticalAlign=middle;resizable=0;points=[];autosize=1;strokeColor=none;fillColor=none;" vertex="1" parent="WIyWlLk6GJQsqaUBKTNV-1">
          <mxGeometry x="220" y="980" width="40" height="20" as="geometry" />
        </mxCell>
        <mxCell id="icVRKcyIq2XIdc4o7d0m-125" value="No" style="text;html=1;align=center;verticalAlign=middle;resizable=0;points=[];autosize=1;strokeColor=none;fillColor=none;" vertex="1" parent="WIyWlLk6GJQsqaUBKTNV-1">
          <mxGeometry x="120" y="940" width="30" height="20" as="geometry" />
        </mxCell>
        <mxCell id="icVRKcyIq2XIdc4o7d0m-127" value="Yes" style="text;html=1;align=center;verticalAlign=middle;resizable=0;points=[];autosize=1;strokeColor=none;fillColor=none;" vertex="1" parent="WIyWlLk6GJQsqaUBKTNV-1">
          <mxGeometry x="220" y="790" width="40" height="20" as="geometry" />
        </mxCell>
        <mxCell id="icVRKcyIq2XIdc4o7d0m-128" value="No" style="text;html=1;align=center;verticalAlign=middle;resizable=0;points=[];autosize=1;strokeColor=none;fillColor=none;" vertex="1" parent="WIyWlLk6GJQsqaUBKTNV-1">
          <mxGeometry x="290" y="730" width="30" height="20" as="geometry" />
        </mxCell>
        <mxCell id="icVRKcyIq2XIdc4o7d0m-130" value="Yes" style="text;html=1;align=center;verticalAlign=middle;resizable=0;points=[];autosize=1;strokeColor=none;fillColor=none;" vertex="1" parent="WIyWlLk6GJQsqaUBKTNV-1">
          <mxGeometry x="220" y="675" width="40" height="20" as="geometry" />
        </mxCell>
        <mxCell id="icVRKcyIq2XIdc4o7d0m-131" value="No" style="text;html=1;align=center;verticalAlign=middle;resizable=0;points=[];autosize=1;strokeColor=none;fillColor=none;" vertex="1" parent="WIyWlLk6GJQsqaUBKTNV-1">
          <mxGeometry x="290" y="620" width="30" height="20" as="geometry" />
        </mxCell>
      </root>
    </mxGraphModel>
  </diagram>
</mxfile>
